Coordinates
version=1
nRows=12
nColumns=24
inDegrees=yes

Units are S.I. units (second, meters, Newtons, ...)
Angles are in degrees.

endheader
time	pelvis_tilt	pelvis_list	pelvis_rotation	pelvis_tx	pelvis_ty	pelvis_tz	hip_flexion_r	hip_adduction_r	hip_rotation_r	knee_angle_r	ankle_angle_r	subtalar_angle_r	mtp_angle_r	hip_flexion_l	hip_adduction_l	hip_rotation_l	knee_angle_l	ankle_angle_l	subtalar_angle_l	mtp_angle_l	lumbar_extension	lumbar_bending	lumbar_rotation
      1.47566667	     -1.76300320	     -5.34480916	     -9.87336368	      0.93696599	      0.98485637	      0.31268723	    -17.51087398	      7.73662994	      9.18753647	    -10.65309273	     17.30340393	     -2.30112446	      3.78029281	     32.17312751	     -8.39886857	     -5.58030105	     -2.04026058	     11.14760701	     -7.31142565	     -3.75271357	      0.19861942	      3.48961118	     10.38195079
      1.47983333	     -1.86513651	     -5.27061007	    -10.00193833	      0.94321667	      0.98399958	      0.31250414	    -17.69388495	      7.56608978	      9.27017268	    -10.76289038	     17.05442275	     -2.38693049	      3.83263011	     32.32343011	     -8.35909697	     -5.21290597	     -2.77307498	     11.36531213	     -7.58293503	     -3.65642832	      0.43934558	      3.44111096	     10.66642680
      1.48400000	     -1.91026691	     -5.16433309	    -10.14636460	      0.94954692	      0.98325614	      0.31232267	    -17.91428820	      7.33994311	      9.30976843	    -10.91258170	     16.81279768	     -2.40681820	      3.89197607	     32.37667008	     -8.28398596	     -4.92174017	     -3.46170400	     11.60284179	     -7.83808121	     -3.56590981	      0.62369575	      3.33008118	     10.82520826
      1.48816667	     -1.99682751	     -5.05134142	    -10.32033296	      0.95592368	      0.98249853	      0.31215991	    -18.07864749	      7.10831296	      9.41237330	    -11.08610825	     16.54211185	     -2.46004193	      4.09312026	     32.43936271	     -8.21237429	     -4.61393055	     -4.10531193	     11.72771933	     -8.22726904	     -3.33821683	      0.85273526	      3.24066612	     11.08012768
      1.49233333	     -2.03689583	     -4.92974532	    -10.46024839	      0.96236971	      0.98181278	      0.31192490	    -18.26919853	      6.86005757	      9.38110624	    -11.29806471	     16.27638180	     -2.42285842	      4.13484183	     32.45296656	     -8.10931302	     -4.40256446	     -4.74956278	     11.91280058	     -8.40599517	     -3.28506213	      1.02901371	      3.12591870	     11.14573851
      1.49650000	     -2.15635542	     -4.81639590	    -10.59697048	      0.96886635	      0.98102908	      0.31167171	    -18.37309227	      6.64049458	      9.39301682	    -11.51919960	     15.98319393	     -2.41736988	      4.28011444	     32.54113085	     -8.01274563	     -4.10953801	     -5.37490845	     11.94097222	     -8.71697164	     -3.14159770	      1.32011580	      3.03969939	     11.39030365
      1.50066667	     -2.23384471	     -4.69146945	    -10.77908839	      0.97535853	      0.98036729	      0.31144431	    -18.48013142	      6.38536784	      9.41187524	    -11.81501440	     15.68446179	     -2.41647938	      4.63568311	     32.53254147	     -7.91482465	     -3.88344072	     -5.91180229	     11.87870413	     -9.14976680	     -2.83125833	      1.55022033	      2.95563399	     11.66711314
      1.50483333	     -2.27651859	     -4.54544197	    -10.93059144	      0.98197837	      0.97977129	      0.31118396	    -18.63174578	      6.10448320	      9.38219601	    -12.08651332	     15.34873456	     -2.35147276	      4.71427251	     32.48881923	     -7.78327341	     -3.78891881	     -6.44843734	     11.89824268	     -9.29492534	     -2.75706304	      1.76514846	      2.81297969	     11.69673104
      1.50900000	     -2.38203181	     -4.40763431	    -11.08754173	      0.98860934	      0.97911430	      0.31088369	    -18.68717202	      5.84202729	      9.34161048	    -12.40686130	     14.93504291	     -2.31287205	      7.82334930	     32.49209919	     -7.65665389	     -3.59370358	     -6.93237100	     11.61525193	     -9.73448989	     -0.19928345	      2.03669734	      2.72298751	     11.79089585
      1.51316667	     -2.43303524	     -4.24943239	    -11.23615181	      0.99527980	      0.97857050	      0.31058722	    -18.78622166	      5.55181095	      9.28697792	    -12.75076044	     14.56854545	     -2.26480676	      7.83581375	     32.43706009	     -7.51094762	     -3.60250990	     -7.41371482	     11.47875768	     -9.82054877	     -0.18669285	      2.26994664	      2.57291687	     11.92115133
      1.51733333	     -2.54007711	     -4.08798783	    -11.41139765	      1.00198456	      0.97798545	      0.31029442	    -18.79092029	      5.26159033	      9.23979234	    -13.16395341	     14.23436415	     -2.17502187	      7.95331382	     32.41790641	     -7.37155753	     -3.54738744	     -7.84321097	     11.15639563	    -10.15736614	     -0.10602247	      2.57112975	      2.44969709	     12.25986983
      1.52150000	     -2.59264407	     -3.92261473	    -11.54643945	      1.00873589	      0.97750556	      0.30994269	    -18.85423489	      4.96512497	      9.14844055	    -13.55854628	     13.80015094	     -2.10113753	      8.00142452	     32.34517773	     -7.20854990	     -3.60238396	     -8.25736220	     10.82625471	    -10.25052392	     -0.07138904	      2.81682588	      2.30504723	     12.30346344
